# xmcd CD database file
#
# Track frame offsets:
#	150
#	31802
#	53818
#	88555
#	123864
#	148744
#	154898
#	179179
#	212190
#	228421
#	240413
#
# Disc length: 3427 seconds
#
# Revision: 1
# Processed by: cddbd v1.5PL3 Copyright (c) Steve Scherf et al.
# Submitted via: CDex 1.51
#
DISCID=950d610b
DTITLE=Freddie King - Texas Flyer
DYEAR=1900
DGENRE=Blues
TTITLE0=Meet Me In The Morning
TTITLE1=Hideaway
TTITLE2=Your Move
TTITLE3=Boogie On Down
TTITLE4=Sweet Home Chicago
TTITLE5=Guitar Blues
TTITLE6=Ain´t Gonna Worry Anymore
TTITLE7=Mojo Boogie
TTITLE8=Please Accept My Love
TTITLE9=Shake Your Booty Baby
TTITLE10=Living In The Palace Of The King
EXTD=
EXTT0=
EXTT1=
EXTT2=
EXTT3=
EXTT4=
EXTT5=
EXTT6=
EXTT7=
EXTT8=
EXTT9=
EXTT10=
PLAYORDER=
